<?xml version="1.0" encoding="utf-8"?>
<!-- Generator: Adobe Illustrator 16.0.1, SVG Export Plug-In . SVG Version: 6.00 Build 0)  -->
<!DOCTYPE svg PUBLIC "-//W3C//DTD SVG 1.1//EN" "http://www.w3.org/Graphics/SVG/1.1/DTD/svg11.dtd">
<svg version="1.1" id="Layer_1" xmlns="http://www.w3.org/2000/svg" xmlns:xlink="http://www.w3.org/1999/xlink" x="0px" y="0px"
	 width="100px" height="100px" viewBox="0 0 100 100" enable-background="new 0 0 100 100" xml:space="preserve">
<path stroke="#FFFFFF" stroke-width="0.0938" d="M31.855,22.106c6.195-2.453,12.91-3.534,19.565-3.347
	c6.609,0.145,13.182,1.602,19.188,4.366c6.469,2.973,12.309,7.298,16.945,12.705c5.635,6.588,9.584,14.636,11.143,23.201
	c0.562,3.017,0.812,6.07,0.854,9.148c-0.23,0.602-0.209,1.269-0.438,1.87c-0.834,2.412-3.244,4.285-5.842,4.2
	c-9.297-0.041-18.588,0.042-27.861-0.041c6.445-8.316,12.994-16.552,19.459-24.847c1.602-2.16,2.268-4.967,1.789-7.608
	c-0.479-2.889-2.496-5.551-5.242-6.631c-3.551-1.373-7.861-0.602-10.621,2.016C63.287,44.5,55.822,51.86,48.317,59.22
	c-1.538,0.271-3.099,0.584-4.555,1.228c-5.32,2.351-9.231,7.881-9.171,13.765c-8.647,0.082-17.297,0-25.945,0.021
	c-1.329-0.021-2.704,0.166-3.973-0.335c-1.661-0.622-3.053-2.013-3.678-3.681c-0.271-0.643-0.251-1.37-0.5-2.037
	c0.042-5.965,1.06-11.936,3.181-17.506c2.266-5.986,5.718-11.562,10.085-16.258C18.776,29.028,25.013,24.81,31.855,22.106
	 M46.013,37.032c2.66-0.018,5.342-0.018,8.026,0c0.104-4.155-0.021-8.335,0.062-12.494c-2.703-0.102-5.404,0-8.109-0.039
	C45.95,28.656,45.95,32.857,46.013,37.032 M26.197,32.834c-1.767,1.851-3.698,3.576-5.488,5.407
	c-0.042,0.27,0.291,0.396,0.416,0.581c2.785,2.785,5.55,5.551,8.338,8.339c1.872-1.83,3.721-3.682,5.613-5.469
	c-0.083-0.354-0.395-0.542-0.625-0.771c-2.658-2.681-5.343-5.342-8.004-8.024C26.385,32.877,26.261,32.834,26.197,32.834
	 M13.246,53.065c-0.312,2.638-0.706,5.282-0.997,7.939c4.138,0.521,8.252,1.122,12.391,1.601c0.374-2.64,0.686-5.299,1.186-7.899
	C21.626,54.165,17.426,53.585,13.246,53.065z"/>
<path d="M70.836,46.163c1.268-1.126,3.412-1.499,4.779-0.334c0.98,0.79,1.168,2.246,0.773,3.387
	c-0.229,0.791-0.812,1.394-1.311,2.017c-5.781,7.484-11.727,14.846-17.531,22.351c0.791,4.199-2.822,8.545-7.088,8.651
	c-4.241,0.374-8.15-3.411-8.087-7.632c-0.188-4.056,3.409-7.734,7.444-7.776C56.889,60.031,63.809,53.023,70.836,46.163z"/>
</svg>
