<?xml version="1.0" encoding="utf-8"?>
<!-- Generator: Adobe Illustrator 16.0.1, SVG Export Plug-In . SVG Version: 6.00 Build 0)  -->
<!DOCTYPE svg PUBLIC "-//W3C//DTD SVG 1.1//EN" "http://www.w3.org/Graphics/SVG/1.1/DTD/svg11.dtd">
<svg version="1.1" id="Ebene_1" xmlns="http://www.w3.org/2000/svg" xmlns:xlink="http://www.w3.org/1999/xlink" x="0px" y="0px"
	 width="100px" height="100px" viewBox="0 0 100 100" enable-background="new 0 0 100 100" xml:space="preserve">
<rect x="7.302" y="45.122" width="85.386" height="12.88"/>
<rect x="6.861" y="13.697" width="12.883" height="75.744"/>
<rect x="43.105" y="13.693" width="12.881" height="75.749"/>
<rect x="79.845" y="13.693" width="12.888" height="42.163"/>
<circle cx="13.302" cy="13.693" r="9.614"/>
<path d="M59.16,13.699c0-5.31-4.303-9.614-9.619-9.614c-5.308,0-9.61,4.305-9.61,9.614c0,5.308,4.303,9.61,9.61,9.61
	C54.857,23.31,59.16,19.007,59.16,13.699z"/>
<path d="M95.903,13.695c0-5.31-4.324-9.614-9.615-9.614c-5.326,0-9.614,4.305-9.614,9.614c0,5.308,4.288,9.61,9.614,9.61
	C91.582,23.305,95.903,19.002,95.903,13.695z"/>
<path d="M59.16,89.446c0-5.312-4.303-9.621-9.619-9.621c-5.308,0-9.61,4.31-9.61,9.621c0,5.303,4.303,9.612,9.61,9.612
	C54.857,99.059,59.16,94.752,59.16,89.446z"/>
<path d="M22.914,89.446c0-5.312-4.3-9.621-9.608-9.621s-9.615,4.31-9.615,9.621c0,5.303,4.307,9.612,9.615,9.612
	S22.914,94.752,22.914,89.446z"/>
</svg>
